<?xml version="1.0" encoding="UTF-8" standalone="no"?>
<!-- Created with Inkscape (http://www.inkscape.org/) -->

<svg
   xmlns:dc="http://purl.org/dc/elements/1.1/"
   xmlns:cc="http://creativecommons.org/ns#"
   xmlns:rdf="http://www.w3.org/1999/02/22-rdf-syntax-ns#"
   xmlns:svg="http://www.w3.org/2000/svg"
   xmlns="http://www.w3.org/2000/svg"
   xmlns:sodipodi="http://sodipodi.sourceforge.net/DTD/sodipodi-0.dtd"
   xmlns:inkscape="http://www.inkscape.org/namespaces/inkscape"
   width="243.68124mm"
   height="243.68124mm"
   viewBox="0 0 243.68124 243.68124"
   version="1.1"
   id="svg242"
   sodipodi:docname="logo3.svg"
   inkscape:version="0.92.3 (2405546, 2018-03-11)">
  <defs
     id="defs236" />
  <sodipodi:namedview
     id="base"
     pagecolor="#ffffff"
     bordercolor="#666666"
     borderopacity="1.0"
     inkscape:pageopacity="0.0"
     inkscape:pageshadow="2"
     inkscape:zoom="0.35"
     inkscape:cx="1460.5"
     inkscape:cy="449.11631"
     inkscape:document-units="mm"
     inkscape:current-layer="layer1"
     showgrid="true"
     showborder="false"
     inkscape:window-width="1366"
     inkscape:window-height="657"
     inkscape:window-x="0"
     inkscape:window-y="27"
     inkscape:window-maximized="1"
     fit-margin-top="0"
     fit-margin-left="0"
     fit-margin-right="0"
     fit-margin-bottom="0">
    <inkscape:grid
       type="xygrid"
       id="grid439"
       originx="280.59062"
       originy="-36.909384" />
  </sodipodi:namedview>
  <metadata
     id="metadata239">
    <rdf:RDF>
      <cc:Work
         rdf:about="">
        <dc:format>image/svg+xml</dc:format>
        <dc:type
           rdf:resource="http://purl.org/dc/dcmitype/StillImage" />
        <dc:title></dc:title>
      </cc:Work>
    </rdf:RDF>
  </metadata>
  <g
     inkscape:label="Layer 1"
     inkscape:groupmode="layer"
     id="layer1"
     style="display:inline"
     transform="translate(280.59064,-16.40938)">
    <circle
       style="fill:#000000;fill-opacity:1;stroke:#ffffff;stroke-width:0.26458332"
       id="path246"
       cx="-158.75002"
       cy="138.25"
       r="121.70833"
       inkscape:transform-center-x="54.428571"
       inkscape:transform-center-y="0.75595238" />
    <path
       inkscape:connector-curvature="0"
       d="m -76.332967,132.535 q 1.27,0 2.159,0.93133 0.93133,0.93133 0.93133,2.20133 0,1.31234 -0.93133,2.24367 -0.889,0.889 -2.24367,0.889 -1.31233,0 -2.20133,-0.889 -0.889,-0.889 -0.889,-2.20133 0,-1.35467 0.889,-2.24367 0.93133,-0.93133 2.286,-0.93133 z m -9.37551,-13.843 q 0.93134,0 2.24367,0.46566 1.35467,0.46567 1.73567,0.46567 0.46566,0 0.67733,-0.127 0.21167,-0.16933 0.55033,-0.762 h 1.22767 l -0.97367,6.477 -1.143,-0.0847 q -0.508,-2.62466 -1.397,-3.81 -0.889,-1.22766 -2.32833,-1.22766 -1.016,0 -1.651,0.635 -0.59267,0.59266 -0.59267,1.60866 0,0.889 0.889,2.24367 0.93134,1.31233 1.98967,2.54 1.10067,1.22767 1.98967,2.921 0.93133,1.69333 0.93133,3.175 0,2.37067 -1.82033,3.97933 -1.778,1.60867 -4.445,1.60867 -1.10067,0 -2.413,-0.42333 -1.27,-0.42334 -1.56634,-0.42334 -0.93133,0 -1.22766,0.84667 h -1.143 l 0.93133,-7.02733 1.143,0.127 q 0.889,5.63033 4.064,5.63033 1.016,0 1.69333,-0.635 0.71967,-0.67733 0.71967,-1.651 0,-1.016 -0.889,-2.37067 -0.889,-1.35466 -1.98967,-2.54 -1.10066,-1.22766 -1.98966,-2.921 -0.889,-1.73566 -0.889,-3.38666 0,-2.413 1.524,-3.85234 1.56633,-1.48166 4.14866,-1.48166 z m -22.495533,8.42433 q 3.302,-4.86833 5.12233,-6.64633 1.82033,-1.778 4.318003,-1.778 1.48166,0 2.286,0.84666 0.80433,0.80434 0.80433,2.32834 0,1.48166 -1.10067,4.86833 l -1.524,4.61433 q -1.05833,3.175 -1.05833,3.683 0,0.71967 0.59267,0.71967 0.55033,0 1.10066,-0.635 0.59267,-0.635 1.86267,-2.58233 l 0.93133,0.55033 q -1.82033,3.09033 -3.34433,4.318 -1.524,1.22767 -3.386673,1.22767 -1.31233,0 -2.11666,-0.67734 -0.762,-0.67733 -0.762,-1.86266 0,-1.98967 1.18533,-5.54567 l 2.32833,-7.02733 q 0.21167,-0.71967 0.21167,-0.889 0,-0.33867 -0.33867,-0.59267 -0.33866,-0.29633 -0.71966,-0.29633 -0.59267,0 -1.43933,0.635 -0.84667,0.59266 -1.48167,1.43933 -1.94733,2.54 -3.302,5.715 -1.31233,3.175 -2.83633,8.72067 h -5.12234 l 2.37067,-8.636 q 1.94733,-6.858 1.94733,-7.53534 0,-0.59266 -0.46566,-0.80433 -0.46567,-0.21167 -1.82034,-0.254 v -1.143 q 3.89467,-0.127 8.46667,-1.143 z m -29.89726,15.24 q 0,-0.508 0.127,-0.97367 0.127,-0.42333 0.33866,-0.762 0.16934,-0.33866 0.508,-0.67733 0.33867,-0.29633 0.59267,-0.55033 0.29633,-0.21167 0.762,-0.42334 0.46567,-0.21166 0.71967,-0.33866 0.29633,-0.0847 0.80433,-0.254 0.508,-0.127 0.67733,-0.16934 0.16934,-0.0423 0.635,-0.127 l 0.46567,-0.127 q -2.62467,-0.889 -2.62467,-2.794 0,-1.143 0.71967,-1.86266 0.762,-0.762 3.34433,-2.24367 -3.38666,-1.43933 -3.38666,-4.65667 0,-3.21733 2.75166,-5.461 2.75167,-2.24366 6.64634,-2.24366 2.75166,0 4.65666,1.397 h 4.699 v 2.37066 h -2.83633 q 0.254,0.80434 0.254,1.778 0,2.20134 -1.10067,3.81 -1.10066,1.60867 -2.75166,2.37067 -1.651,0.71967 -3.00567,1.05833 -1.31233,0.29634 -2.286,0.29634 -0.71967,0 -1.31233,-0.16934 -0.55034,-0.16933 -0.84667,-0.16933 -0.42333,0 -0.80433,0.508 -0.381,0.508 -0.381,1.016 0,1.016 2.159,1.60867 l 2.24366,0.635 q 3.47134,0.97366 4.86834,2.20133 1.43933,1.18533 1.43933,3.09033 0,2.794 -2.83633,4.572 -2.83634,1.778 -7.28134,1.778 -3.64066,0 -5.79966,-1.22767 -2.159,-1.18533 -2.159,-3.25966 z m 7.02733,-3.85233 q -0.635,0 -1.98967,1.10066 -1.35466,1.143 -1.35466,2.49767 0,1.43933 1.31233,2.37066 1.31233,0.93134 3.38667,0.93134 2.413,0 3.72533,-0.80434 1.35467,-0.762 1.35467,-2.11666 0,-1.60867 -1.73567,-2.413 -0.67733,-0.33867 -2.54,-0.97367 -1.86267,-0.59266 -2.159,-0.59266 z m 3.38667,-8.04334 q 1.905,0 3.175,-2.75166 1.31233,-2.794 1.31233,-5.207 0,-1.10067 -0.55033,-1.778 -0.55034,-0.71967 -1.35467,-0.71967 -1.86267,0 -3.13267,2.794 -1.27,2.75167 -1.27,5.16467 0,2.49766 1.82034,2.49766 z m -10.30552,1.82034 0.93133,0.59266 q -2.24366,3.34434 -3.72533,4.572 -1.43933,1.18534 -3.34433,1.18534 -1.31233,0 -2.11667,-0.71967 -0.80433,-0.762 -0.80433,-1.94733 0,-0.97367 0.55033,-2.921 l 2.45534,-9.10167 q 0.29633,-1.27 0.29633,-1.69333 0,-0.67734 -0.59267,-0.93134 -0.55033,-0.29633 -1.905,-0.29633 v -1.143 q 4.91067,-0.381 8.55133,-1.18533 l -3.85233,14.13933 q -0.381,1.524 -0.381,2.20133 0,0.254 0.16934,0.46567 0.21166,0.16933 0.46566,0.16933 1.016,0 2.70933,-2.54 z m -0.93133,-23.02934 q 1.18533,0 2.032,0.84667 0.889,0.84667 0.889,2.032 0,1.18533 -0.84667,2.032 -0.84667,0.80433 -2.07433,0.80433 -1.18533,0 -1.98967,-0.84666 -0.80433,-0.84667 -0.80433,-2.07434 0,-1.10066 0.84667,-1.94733 0.84666,-0.84667 1.94733,-0.84667 z m -15.98943,9.44034 q 0.93133,0 2.24366,0.46566 1.35467,0.46567 1.73567,0.46567 0.46567,0 0.67733,-0.127 0.21167,-0.16933 0.55034,-0.762 h 1.22766 l -0.97366,6.477 -1.143,-0.0847 q -0.508,-2.62466 -1.397,-3.81 -0.889,-1.22766 -2.32834,-1.22766 -1.016,0 -1.651,0.635 -0.59266,0.59266 -0.59266,1.60866 0,0.889 0.889,2.24367 0.93133,1.31233 1.98966,2.54 1.10067,1.22767 1.98967,2.921 0.93133,1.69333 0.93133,3.175 0,2.37067 -1.82033,3.97933 -1.778,1.60867 -4.445,1.60867 -1.10067,0 -2.413,-0.42333 -1.27,-0.42334 -1.56633,-0.42334 -0.93134,0 -1.22767,0.84667 h -1.143 l 0.93133,-7.02733 1.143,0.127 q 0.889,5.63033 4.064,5.63033 1.016,0 1.69334,-0.635 0.71966,-0.67733 0.71966,-1.651 0,-1.016 -0.889,-2.37067 -0.889,-1.35466 -1.98966,-2.54 -1.10067,-1.22766 -1.98967,-2.921 -0.889,-1.73566 -0.889,-3.38666 0,-2.413 1.524,-3.85234 1.56633,-1.48166 4.14867,-1.48166 z m -11.93668,13.54666 1.22766,0.71967 q -1.905,3.13267 -3.76766,4.48733 -1.86267,1.35467 -4.27567,1.35467 -2.75167,0 -4.572,-1.778 -1.82033,-1.778 -1.82033,-4.445 0,-5.24933 3.81,-9.56733 3.81,-4.318 8.382,-4.318 1.94733,0 3.175,1.05833 1.27,1.016 1.27,2.62467 0,0.889 -0.381,1.86266 -0.381,0.93134 -1.43934,2.20134 -1.016,1.22766 -3.34433,2.37066 -2.32833,1.10067 -5.715,1.73567 -0.254,1.27 -0.254,2.07433 0,3.47134 2.75167,3.47134 1.31233,0 2.37066,-0.80434 1.10067,-0.84666 2.58234,-3.048 z m -7.15434,-3.048 q 3.048,-1.10066 4.86834,-2.794 1.82033,-1.73566 1.82033,-4.86833 0,-1.43933 -1.18533,-1.43933 -3.13267,0 -5.50334,9.10166 z m -28.64511,-16.42533 q 0,-0.97367 -0.59267,-1.22767 -0.59266,-0.29633 -2.49766,-0.55033 V 109.929 h 12.27666 q 6.01134,0 9.35567,3.09033 3.38667,3.048 3.38667,8.46667 0,7.19666 -5.37634,11.98033 -5.37633,4.78367 -13.462,4.78367 h -12.10733 v -1.05834 q 1.56633,-0.21166 2.24367,-0.80433 0.71966,-0.635 1.143,-2.24367 l 5.12233,-18.88066 q 0.508,-2.032 0.508,-2.49767 z m 6.39233,0.0847 -5.461,20.23533 q -0.508,1.94733 -0.508,2.286 0,1.43933 2.286,1.43933 5.92667,0 9.271,-4.78366 1.73567,-2.45534 2.70934,-5.969 1.016,-3.556 1.016,-7.15434 0,-7.66233 -6.985,-7.66233 -1.905,0 -2.32834,1.60867 z m 80.24019,-41.190367 q -0.84667,0 -1.651,-0.80433 -0.762,-0.80433 -0.889,-0.80433 -0.93133,0 -2.54,2.87866 -1.60867,2.83634 -3.25967,8.001 -0.16933,0.635 -1.397,4.40267 h -5.12233 q 4.318,-14.52033 4.318,-16.17133 0,-0.59267 -0.42333,-0.762 -0.42334,-0.21167 -1.86267,-0.29634 v -1.143 q 5.54567,-0.46566 8.46667,-1.18533 l -2.794,8.84767 q 2.49766,-5.03767 4.064,-6.94267 1.56633,-1.905 3.175,-1.905 1.10066,0 1.73566,0.762 0.67734,0.762 0.67734,2.032 0,1.35467 -0.71967,2.24367 -0.71967,0.84666 -1.778,0.84666 z m -18.75234,7.66234 1.22766,0.71966 q -1.905,3.13267 -3.76766,4.48734 -1.86267,1.35466 -4.27567,1.35466 -2.75167,0 -4.572,-1.778 -1.82033,-1.778 -1.82033,-4.445 0,-5.24933 3.81,-9.56733 3.81,-4.318 8.382,-4.318 1.94733,0 3.175,1.05833 1.27,1.016 1.27,2.62467 0,0.889 -0.381,1.86267 -0.381,0.93133 -1.43934,2.20133 -1.016,1.22767 -3.34433,2.37067 -2.32833,1.10066 -5.715,1.73566 -0.254,1.27 -0.254,2.07434 0,3.47133 2.75167,3.47133 1.31233,0 2.37066,-0.80433 1.10067,-0.84667 2.58234,-3.048 z m -7.15434,-3.048 q 3.048,-1.10067 4.86834,-2.794 1.82033,-1.73567 1.82033,-4.86834 0,-1.43933 -1.18533,-1.43933 -3.13267,0 -5.50334,9.10167 z m -5.42528,-9.94834 v 1.778 h -3.51367 l -1.397,4.99534 q -2.286,8.17033 -2.286,9.017 0,0.21166 0.21167,0.42333 0.21167,0.21167 0.46567,0.21167 1.05833,0 3.21733,-3.38667 l 0.93133,0.59267 q -2.11666,3.25966 -3.64066,4.52966 -1.48167,1.22767 -3.38667,1.22767 -1.35467,0 -2.159,-0.762 -0.80433,-0.762 -0.80433,-1.98967 0,-1.31233 1.016,-4.78366 l 2.87866,-10.07534 h -2.159 v -1.48166 q 2.49767,-0.97367 4.27567,-2.413 1.778,-1.439336 3.47133,-4.021669 h 1.48167 l -1.651,6.138329 z m -12.07161,0 v 1.778 h -3.51367 l -1.397,4.99534 q -2.286,8.17033 -2.286,9.017 0,0.21166 0.21167,0.42333 0.21166,0.21167 0.46566,0.21167 1.05834,0 3.21734,-3.38667 l 0.93133,0.59267 q -2.11667,3.25966 -3.64067,4.52966 -1.48166,1.22767 -3.38666,1.22767 -1.35467,0 -2.159,-0.762 -0.80434,-0.762 -0.80434,-1.98967 0,-1.31233 1.016,-4.78366 l 2.87867,-10.07534 h -2.159 v -1.48166 q 2.49767,-0.97367 4.27567,-2.413 1.778,-1.439336 3.47133,-4.021669 h 1.48167 l -1.651,6.138329 z m -17.18601,12.99634 1.22766,0.71966 q -1.905,3.13267 -3.76766,4.48734 -1.86267,1.35466 -4.27567,1.35466 -2.75167,0 -4.572,-1.778 -1.82033,-1.778 -1.82033,-4.445 0,-5.24933 3.81,-9.56733 3.81,-4.318 8.382,-4.318 1.94733,0 3.175,1.05833 1.27,1.016 1.27,2.62467 0,0.889 -0.381,1.86267 -0.381,0.93133 -1.43934,2.20133 -1.016,1.22767 -3.34433,2.37067 -2.32833,1.10066 -5.715,1.73566 -0.254,1.27 -0.254,2.07434 0,3.47133 2.75167,3.47133 1.31233,0 2.37066,-0.80433 1.10067,-0.84667 2.58234,-3.048 z m -7.15434,-3.048 q 3.048,-1.10067 4.86834,-2.794 1.82033,-1.73567 1.82033,-4.86834 0,-1.43933 -1.18533,-1.43933 -3.13267,0 -5.50334,9.10167 z m -7.08355,-4.61434 q -0.84667,0 -1.651,-0.80433 -0.762,-0.80433 -0.889,-0.80433 -0.93134,0 -2.54,2.87866 -1.60867,2.83634 -3.25967,8.001 -0.16933,0.635 -1.397,4.40267 h -5.12233 q 4.318,-14.52033 4.318,-16.17133 0,-0.59267 -0.42334,-0.762 -0.42333,-0.21167 -1.86266,-0.29634 v -1.143 q 5.54566,-0.46566 8.46666,-1.18533 l -2.794,8.84767 q 2.49767,-5.03767 4.064,-6.94267 1.56634,-1.905 3.175,-1.905 1.10067,0 1.73567,0.762 0.67733,0.762 0.67733,2.032 0,1.35467 -0.71966,2.24367 -0.71967,0.84666 -1.778,0.84666 z m -32.97172,-11.853329 q 0,-0.973667 -0.71966,-1.27 -0.71967,-0.338667 -2.37067,-0.465667 v -1.058333 h 11.51467 q 9.99066,0 9.99066,6.180669 0,1.524 -0.67733,2.75166 -0.67733,1.22767 -1.48167,1.905 -0.762,0.67734 -2.159,1.27 -1.397,0.59267 -1.98966,0.762 -0.59267,0.16934 -1.69334,0.42334 3.21734,1.05833 4.48734,2.45533 1.31233,1.397 1.31233,3.85233 0,4.064 -3.34433,6.39234 -3.34434,2.32833 -9.144,2.32833 h -12.74234 v -1.05833 q 1.56634,-0.21167 2.24367,-0.80434 0.71967,-0.635 1.143,-2.24366 l 5.16467,-19.007669 q 0.46566,-1.651 0.46566,-2.413 z m 2.794,24.172329 q 3.09034,0 4.99534,-2.37066 1.94733,-2.413 1.94733,-5.969 0,-1.48167 -0.42333,-2.413 -0.42334,-0.93134 -1.397,-1.397 -0.97367,-0.46567 -1.94734,-0.59267 -0.93133,-0.16933 -2.58233,-0.21167 l -2.794,10.32934 q -0.21167,0.93133 -0.21167,1.22766 0,1.397 2.413,1.397 z m 0.93134,-14.224 q 2.11666,-0.0847 3.51366,-0.381 1.397,-0.29633 2.58234,-1.016 1.22766,-0.762 1.778,-2.159 0.59266,-1.397 0.59266,-3.555996 0,-4.275667 -3.683,-4.275667 -1.016,0 -1.48166,0.381 -0.42334,0.338667 -0.71967,1.481667 z"
       style="font-style:italic;font-variant:normal;font-weight:bold;font-stretch:normal;font-size:42.33333206px;line-height:1.25;font-family:FreeSerif;-inkscape-font-specification:'FreeSerif Bold Italic';letter-spacing:0px;word-spacing:0px;fill:#ffffff;fill-opacity:1;stroke:none;stroke-width:0.26458332"
       id="path322" />
    <text
       xml:space="preserve"
       style="font-style:italic;font-variant:normal;font-weight:bold;font-stretch:normal;font-size:16.93333244px;line-height:1.25;font-family:FreeSerif;-inkscape-font-specification:'FreeSerif Bold Italic';letter-spacing:0px;word-spacing:0px;fill:#ffffff;fill-opacity:1;stroke:none;stroke-width:0.26458332"
       x="-245.68452"
       y="181.33928"
       id="text328"><tspan
         sodipodi:role="line"
         id="tspan326"
         x="-245.68452"
         y="181.33928"
         style="fill:#ffffff;stroke-width:0.26458332">Professional Web</tspan><tspan
         sodipodi:role="line"
         x="-245.68452"
         y="202.50595"
         style="fill:#ffffff;stroke-width:0.26458332"
         id="tspan330">Development And Design.</tspan></text>
    <path
       sodipodi:type="star"
       style="fill:#ffffff;fill-opacity:1;stroke:#ffffff;stroke-width:0.26458332"
       id="path369"
       sodipodi:sides="12"
       sodipodi:cx="-248.70831"
       sodipodi:cy="126.91072"
       sodipodi:r1="23.665052"
       sodipodi:r2="8.9605074"
       sodipodi:arg1="1.1071487"
       sodipodi:arg2="1.3689481"
       inkscape:flatsided="false"
       inkscape:rounded="0"
       inkscape:randomized="0"
       d="m -238.12498,148.07739 -8.78693,-12.38808 -3.2143,14.84395 -1.41566,-15.12186 -10.20565,11.24809 6.33493,-13.80374 -14.46239,4.6383 12.38808,-8.78692 -14.84395,-3.21431 15.12185,-1.41566 -11.24808,-10.20564 13.80374,6.33492 -4.63831,-14.46239 8.78693,12.38808 3.2143,-14.84395 1.41567,15.12186 10.20564,-11.24809 -6.33493,13.80374 14.46239,-4.6383 -12.38807,8.78692 14.84394,3.21431 -15.12185,1.41566 11.24809,10.20564 -13.80375,-6.33492 z"
       inkscape:transform-center-x="-0.80459899"
       inkscape:transform-center-y="-0.92793091" />
  </g>
</svg>
